<?xml version="1.0" encoding="UTF-8" standalone="no"?>
<!DOCTYPE svg PUBLIC "-//W3C//DTD SVG 1.0//EN" "http://www.w3.org/TR/2001/PR-SVG-20010719/DTD/svg10.dtd">
<svg width="46cm" height="28cm" viewBox="78 148 903 553" xmlns="http://www.w3.org/2000/svg" xmlns:xlink="http://www.w3.org/1999/xlink">
  <g>
    <rect style="fill: #ffffff" x="80" y="150" width="900" height="550"/>
    <rect style="fill: none; fill-opacity:0; stroke-width: 2; stroke: #ffffff" x="80" y="150" width="900" height="550"/>
    <text font-size="12.7998" style="fill: #000000;text-anchor:middle;font-family:sans-serif;font-style:normal;font-weight:normal" x="530" y="428.881">
      <tspan x="530" y="428.881"></tspan>
    </text>
  </g>
  <g>
    <rect style="fill: #ffffff" x="340" y="420" width="100" height="100"/>
    <rect style="fill: none; fill-opacity:0; stroke-width: 2; stroke: #000000" x="340" y="420" width="100" height="100"/>
    <text font-size="12.7998" style="fill: #000000;text-anchor:middle;font-family:sans-serif;font-style:normal;font-weight:normal" x="390" y="465.881">
      <tspan x="390" y="465.881">Get Agent</tspan>
      <tspan x="390" y="481.881">Position</tspan>
    </text>
  </g>
  <g>
    <rect style="fill: #ffffff" x="340" y="220" width="100" height="100"/>
    <rect style="fill: none; fill-opacity:0; stroke-width: 2; stroke: #000000" x="340" y="220" width="100" height="100"/>
    <text font-size="12.7998" style="fill: #000000;text-anchor:middle;font-family:sans-serif;font-style:normal;font-weight:normal" x="390" y="265.881">
      <tspan x="390" y="265.881">Move</tspan>
      <tspan x="390" y="281.881">Forward</tspan>
    </text>
  </g>
  <g>
    <rect style="fill: #ffffff" x="160" y="320" width="100" height="100"/>
    <rect style="fill: none; fill-opacity:0; stroke-width: 2; stroke: #000000" x="160" y="320" width="100" height="100"/>
    <text font-size="12.7998" style="fill: #000000;text-anchor:middle;font-family:sans-serif;font-style:normal;font-weight:normal" x="210" y="365.881">
      <tspan x="210" y="365.881">World</tspan>
      <tspan x="210" y="381.881">State</tspan>
    </text>
  </g>
  <g>
    <rect style="fill: #ffffff" x="640" y="320" width="100" height="100"/>
    <rect style="fill: none; fill-opacity:0; stroke-width: 2; stroke: #000000" x="640" y="320" width="100" height="100"/>
    <text font-size="12.7998" style="fill: #000000;text-anchor:middle;font-family:sans-serif;font-style:normal;font-weight:normal" x="690" y="373.881">
      <tspan x="690" y="373.881">If</tspan>
    </text>
  </g>
  <g>
    <rect style="fill: #ffffff" x="800" y="320" width="100" height="100"/>
    <rect style="fill: none; fill-opacity:0; stroke-width: 2; stroke: #000000" x="800" y="320" width="100" height="100"/>
    <text font-size="12.7998" style="fill: #000000;text-anchor:middle;font-family:sans-serif;font-style:normal;font-weight:normal" x="850" y="373.881">
      <tspan x="850" y="373.881">Output</tspan>
    </text>
  </g>
  <g>
    <polyline style="fill: none; fill-opacity:0; stroke-width: 2; stroke: #ff0000" points="260,370 300,370 300,270 330.264,270 "/>
    <polygon style="fill: #ff0000" points="337.764,270 327.764,275 330.264,270 327.764,265 "/>
    <polygon style="fill: none; fill-opacity:0; stroke-width: 2; stroke: #ff0000" points="337.764,270 327.764,275 330.264,270 327.764,265 "/>
  </g>
  <g>
    <polyline style="fill: none; fill-opacity:0; stroke-width: 2; stroke: #ff0000" points="260,370 300,370 300,470 330.264,470 "/>
    <polygon style="fill: #ff0000" points="337.764,470 327.764,475 330.264,470 327.764,465 "/>
    <polygon style="fill: none; fill-opacity:0; stroke-width: 2; stroke: #ff0000" points="337.764,470 327.764,475 330.264,470 327.764,465 "/>
  </g>
  <g>
    <rect style="fill: #ffffff" x="500" y="500" width="100" height="100"/>
    <rect style="fill: none; fill-opacity:0; stroke-width: 2; stroke: #000000" x="500" y="500" width="100" height="100"/>
    <text font-size="12.7998" style="fill: #000000;text-anchor:middle;font-family:sans-serif;font-style:normal;font-weight:normal" x="550" y="545.881">
      <tspan x="550" y="545.881">Is Equal</tspan>
      <tspan x="550" y="561.881">To?</tspan>
    </text>
  </g>
  <g>
    <rect style="fill: #ffffff" x="340" y="580" width="100" height="100"/>
    <rect style="fill: none; fill-opacity:0; stroke-width: 2; stroke: #000000" x="340" y="580" width="100" height="100"/>
    <text font-size="12.7998" style="fill: #000000;text-anchor:middle;font-family:sans-serif;font-style:normal;font-weight:normal" x="390" y="625.881">
      <tspan x="390" y="625.881">Get Goal</tspan>
      <tspan x="390" y="641.881">Position</tspan>
    </text>
  </g>
  <g>
    <polyline style="fill: none; fill-opacity:0; stroke-width: 2; stroke: #0000ff" points="441.006,630 470.503,630 470.503,575 490.264,575 "/>
    <polygon style="fill: #0000ff" points="497.764,575 487.764,580 490.264,575 487.764,570 "/>
    <polygon style="fill: none; fill-opacity:0; stroke-width: 2; stroke: #0000ff" points="497.764,575 487.764,580 490.264,575 487.764,570 "/>
  </g>
  <g>
    <polyline style="fill: none; fill-opacity:0; stroke-width: 2; stroke: #0000ff" points="441.006,470 470.503,470 470.503,525 490.264,525 "/>
    <polygon style="fill: #0000ff" points="497.764,525 487.764,530 490.264,525 487.764,520 "/>
    <polygon style="fill: none; fill-opacity:0; stroke-width: 2; stroke: #0000ff" points="497.764,525 487.764,530 490.264,525 487.764,520 "/>
  </g>
  <g>
    <polyline style="fill: none; fill-opacity:0; stroke-width: 2; stroke: #00ff00" points="601.006,550 620.503,550 620.503,395 630.264,395 "/>
    <polygon style="fill: #00ff00" points="637.764,395 627.764,400 630.264,395 627.764,390 "/>
    <polygon style="fill: none; fill-opacity:0; stroke-width: 2; stroke: #00ff00" points="637.764,395 627.764,400 630.264,395 627.764,390 "/>
  </g>
  <g>
    <line style="fill: none; fill-opacity:0; stroke-width: 2; stroke: #ff0000" x1="260" y1="370" x2="630.264" y2="370"/>
    <polygon style="fill: #ff0000" points="637.764,370 627.764,375 630.264,370 627.764,365 "/>
    <polygon style="fill: none; fill-opacity:0; stroke-width: 2; stroke: #ff0000" points="637.764,370 627.764,375 630.264,370 627.764,365 "/>
  </g>
  <g>
    <polyline style="fill: none; fill-opacity:0; stroke-width: 2; stroke: #ff0000" points="440,270 540,270 540,345 630.264,345 "/>
    <polygon style="fill: #ff0000" points="637.764,345 627.764,350 630.264,345 627.764,340 "/>
    <polygon style="fill: none; fill-opacity:0; stroke-width: 2; stroke: #ff0000" points="637.764,345 627.764,350 630.264,345 627.764,340 "/>
  </g>
  <g>
    <line style="fill: none; fill-opacity:0; stroke-width: 2; stroke: #ff0000" x1="740" y1="370" x2="790.264" y2="370"/>
    <polygon style="fill: #ff0000" points="797.764,370 787.764,375 790.264,370 787.764,365 "/>
    <polygon style="fill: none; fill-opacity:0; stroke-width: 2; stroke: #ff0000" points="797.764,370 787.764,375 790.264,370 787.764,365 "/>
  </g>
  <text font-size="12.7998" style="fill: #000000;text-anchor:start;font-family:sans-serif;font-style:normal;font-weight:normal" x="450" y="180">
    <tspan x="450" y="180">A Copy-On-Write version of the world state is created by this function. This is</tspan>
    <tspan x="450" y="196">a seperate instance of the world state in which the agent has moved forward.</tspan>
    <tspan x="450" y="212">For more practical usage, this can be internally represented by a list of actions</tspan>
    <tspan x="450" y="228">to preform in the world. Here, the "move forward" action is appended to the</tspan>
    <tspan x="450" y="244">list.</tspan>
  </text>
  <text font-size="12.7998" style="fill: #000000;text-anchor:start;font-family:sans-serif;font-style:normal;font-weight:normal" x="580" y="280">
    <tspan x="580" y="280">Here, the if statement determines which copy of the world</tspan>
    <tspan x="580" y="296">state to return. The original state has no modifications and</tspan>
    <tspan x="580" y="312">as a result, will cause the agent to preform no actions.</tspan>
  </text>
  <text font-size="12.8" style="fill: #000000;text-anchor:start;font-family:sans-serif;font-style:normal;font-weight:700" x="100" y="200">
    <tspan x="100" y="200">KEY:</tspan>
  </text>
  <text font-size="12.7998" style="fill: #000000;text-anchor:start;font-family:sans-serif;font-style:normal;font-weight:normal" x="100" y="220">
    <tspan x="100" y="220">Red: World State Objects</tspan>
    <tspan x="100" y="236">Blue: World Position Objects</tspan>
    <tspan x="100" y="252">Green: Boolean Objects</tspan>
  </text>
</svg>
